<svg width="20" height="20" viewBox="0 0 20 20" fill="none" xmlns="http://www.w3.org/2000/svg">
<path fill-rule="evenodd" clip-rule="evenodd" d="M14.0162 7.65277H13.2736V9.13787H11.7885V7.65277H10.3034V6.16766H11.7885V5.42511C11.7885 5.32759 11.8077 5.23103 11.845 5.14094C11.8824 5.05085 11.937 4.96899 12.006 4.90004C12.075 4.83109 12.1568 4.77639 12.2469 4.73908C12.337 4.70176 12.4336 4.68255 12.5311 4.68255C12.6286 4.68255 12.7251 4.70176 12.8152 4.73908C12.9053 4.77639 12.9872 4.83109 13.0561 4.90004C13.1251 4.96899 13.1798 5.05085 13.2171 5.14094C13.2544 5.23103 13.2736 5.32759 13.2736 5.42511V6.16766H14.0162C14.2131 6.16766 14.402 6.24589 14.5412 6.38515C14.6805 6.5244 14.7587 6.71328 14.7587 6.91021C14.7587 7.10715 14.6805 7.29602 14.5412 7.43528C14.402 7.57453 14.2131 7.65277 14.0162 7.65277V7.65277ZM13.2736 11.4213C13.2736 13.3111 12.1374 14.5826 10 14.5826C7.86255 14.5826 6.72638 13.3111 6.72638 11.4209V6.16809H9.6966V7.65319H8.21149V11.4217C8.21149 12.5809 8.76298 13.0979 10 13.0979C11.237 13.0979 11.7885 12.5809 11.7885 11.4213V9.74553H13.2736V11.4217V11.4213ZM10 0C4.47702 0 0 4.47702 0 10C0 15.523 4.47702 20 10 20C15.523 20 20 15.523 20 10C20 4.47702 15.523 0 10 0Z" fill="#FDD835"/>
</svg>
